<?xml version="1.0" encoding="UTF-8"?>
<!DOCTYPE svg PUBLIC "-//W3C//DTD SVG 1.1//EN" "http://www.w3.org/Graphics/SVG/1.1/DTD/svg11.dtd">
<!-- Creator: CorelDRAW -->
<svg xmlns="http://www.w3.org/2000/svg" xml:space="preserve" width="89.5118mm" height="16.4894mm" version="1.1" style="shape-rendering:geometricPrecision; text-rendering:geometricPrecision; image-rendering:optimizeQuality; fill-rule:evenodd; clip-rule:evenodd"
viewBox="0 0 9500.91 1750.21"
 xmlns:xlink="http://www.w3.org/1999/xlink"
 xmlns:xodm="http://www.corel.com/coreldraw/odm/2003">
 <defs>
  <style type="text/css">
   <![CDATA[
    .str0 {stroke:#D2AE6D;stroke-width:26.54;stroke-linejoin:round;stroke-miterlimit:22.9256}
    .str1 {stroke:#D2AE6D;stroke-width:26.54;stroke-linejoin:round;stroke-miterlimit:22.9256}
    .fil1 {fill:none}
    .fil0 {fill:#D2AE6D}
    .fil3 {fill:#FEFEFE;fill-rule:nonzero}
    .fil2 {fill:#D2AE6D;fill-rule:nonzero}
   ]]>
  </style>
     <clipPath id="id0">
      <path d="M-0 602.14l1579.94 2.84 0 1145.22 -1579.94 -2.84 0 -1145.22z"/>
     </clipPath>
 </defs>
 <g id="Camada_x0020_1">
  <metadata id="CorelCorpID_0Corel-Layer"/>
  <path class="fil0" d="M9389.71 490.35c47,0 87.17,29.15 103.46,70.36l-26.99 0 -29.4 62.73 -29.91 -62.73 -31.19 0 0 4.04c3.93,0 6.67,0.38 8.16,1.17 1.5,0.74 2.55,1.91 3.11,3.44 0.56,1.54 0.86,5.02 0.86,10.45l0 51c0,4.98 -0.34,8.24 -0.98,9.77 -0.64,1.54 -1.65,2.7 -2.99,3.45 -1.35,0.79 -4.08,1.16 -8.16,1.16l0 4.04 33.25 0 0 -4.04 -3.94 0c-2.88,0 -4.98,-0.41 -6.36,-1.2 -1.43,-0.82 -2.44,-2.13 -3.08,-3.97 -0.52,-1.31 -0.79,-4.37 -0.79,-9.2l0 -52.81 33.97 71.22 3.41 0 33.85 -72.23 0 53.81c0,4.79 -0.34,7.97 -1.05,9.51 -0.67,1.53 -1.79,2.73 -3.29,3.56 -1.5,0.79 -4.38,1.23 -8.69,1.31l0 4.04 37.23 0c-17.86,37.54 -56.13,63.5 -100.47,63.5 -61.41,0 -111.19,-49.78 -111.19,-111.19 0,-12.83 2.19,-25.17 6.19,-36.64l-1.83 17.83 3.6 0c1.08,-5.81 3.14,-9.81 6.1,-12.1 2.95,-2.28 7.87,-3.41 14.75,-3.41l8.34 0 0 63.59c0,4.76 -0.25,7.9 -0.82,9.39 -0.56,1.5 -1.42,2.58 -2.59,3.33 -1.16,0.75 -3.7,1.27 -7.6,1.65l0 4.04 41.12 0 0 -4.04c-3.75,-0.15 -6.33,-0.59 -7.72,-1.42 -1.39,-0.79 -2.4,-1.98 -3.04,-3.51 -0.64,-1.58 -0.93,-4.72 -0.93,-9.44l0 -63.59 8.2 0c7.14,0 12.28,1.24 15.42,3.75 3.14,2.47 5.09,6.4 5.81,11.76l3.6 0 -2.47 -22.02 -78.41 0c16.28,-41.21 56.46,-70.36 103.46,-70.36zm104.97 74.47c4.02,11.5 6.22,23.86 6.22,36.72 0,15.34 -3.1,29.94 -8.71,43.24 -1.78,-0.25 -3.1,-0.63 -3.96,-1.09 -1.46,-0.74 -2.47,-1.84 -3,-3.22 -0.56,-1.39 -0.82,-4.61 -0.82,-9.66l0 -51.23c0,-5.13 0.34,-8.46 0.98,-10.03 0.67,-1.57 1.65,-2.77 2.95,-3.52 1.11,-0.66 3.22,-1.05 6.35,-1.21z"/>
  <g id="_2904145037792">
   <g>
    <g style="clip-path:url(#id0)">
     <image x="-0" y="602.14" width="1579.94" height="1148.07" xlink:href="Marca_Images\Marca_ImgID1.png"/>
    </g>
   </g>
   <path class="fil1 str0" d="M416.7 873.9l-270.28 129.14 383.88 599.17 893.17 -356.39 -497.76 -492.04 -85.57 -6 -423.44 126.12zm214.42 287.03l-173.64 -257.38 407.31 -130.27 226.58 234.2 -460.25 153.45z"/>
   <polygon class="fil1 str1" points="413.82,875.04 143.56,1004.18 922.85,754.92 837.28,748.92 "/>
   <polygon class="fil1 str1" points="143.56,1004.18 35.5,221.32 405.71,493.84 413.82,875.04 "/>
   <polygon class="fil1 str1" points="413.82,875.04 143.56,1004.18 527.44,1603.35 654.39,1153.54 "/>
   <polygon class="fil1 str1" points="837.28,748.92 922.85,754.92 943.93,13.27 846.27,373.7 "/>
   <polygon class="fil1 str1" points="922.85,754.92 837.28,748.92 1088.49,1008.62 1420.61,1246.96 "/>
   <polygon class="fil1 str1" points="1420.61,1246.96 1088.49,1008.62 1113.9,614 1550.53,429.36 "/>
   <polygon class="fil1 str1" points="654.39,1153.54 527.44,1603.35 1420.61,1246.96 1088.49,1008.62 "/>
   <polygon class="fil1 str1" points="943.93,13.27 846.27,373.7 1113.9,614 1550.53,429.36 "/>
   <polygon class="fil1 str1" points="405.71,493.84 35.5,221.32 943.93,13.27 846.27,373.7 "/>
   <polygon class="fil1 str1" points="405.71,493.84 35.5,221.32 476.65,750.91 636.24,750.91 "/>
   <polygon class="fil1 str1" points="636.24,750.91 654.39,1153.54 527.44,1603.35 476.65,750.91 "/>
   <polygon class="fil1 str1" points="636.24,750.91 476.65,750.91 1550.53,429.36 1113.9,614 "/>
  </g>
  <path class="fil2" d="M2066.02 550.73l73.09 0 189.62 511.79c9.28,25.61 18.71,42.68 28.31,50.92 9.44,8.25 22.31,12.44 38.34,12.44l9.73 0 0 36.84 -217.62 0 0 -36.84c7.04,-0.61 13.78,-0.9 20.52,-0.9 14.07,0 23.36,-1.5 27.7,-4.34 8.54,-5.54 12.74,-12.59 12.74,-20.97 0,-6.13 -4.04,-21.27 -12.28,-45.08l-41.34 -118.33 -220.77 0 -47.63 132.25c-4.95,13.78 -7.34,23.21 -7.34,28.46 0,5.85 1.51,10.93 4.5,15.28 3.14,4.49 7.33,7.78 12.58,9.88 5.24,2.25 13.78,3.29 25.46,3.29 7.94,0 14.38,0.15 19.32,0.46l0 36.84 -183.02 0 0 -36.84c16.92,0 29.2,-1.66 36.69,-5.09 7.48,-3.3 13.93,-8.69 19.47,-16.18 5.54,-7.34 12.89,-23.06 22.02,-47.03l189.92 -506.85zm-76.39 342.39l188.87 0 -94.21 -263.32 -94.66 263.32z"/>
  <path id="_1" class="fil2" d="M2447.06 550.73l186.92 0 279.49 458.91 0 -349.28c0,-20.81 -2.1,-35.95 -6.15,-44.93 -4.04,-9.14 -10.18,-16.03 -18.27,-20.82 -8.24,-4.64 -20.22,-7.04 -36.25,-7.04l-15.73 0 0 -36.84 204 0 0 36.84 -10.94 0c-17.97,0 -30.25,1.5 -36.54,4.34 -9.13,4.19 -15.87,11.69 -20.37,22.62 -4.49,10.78 -6.74,26.06 -6.74,45.83l0 502.36 -53.02 0 -336.11 -551.48 0 437.35c0,24.12 0.75,38.79 2.25,44.04 1.95,6.74 5.69,12.89 11.08,18.43 5.39,5.54 11.69,9.29 19.02,11.38 7.2,1.95 21.88,3.14 44.04,3.45l0 36.84 -206.69 0 0 -36.84 10.93 0c21.11,0 35.35,-2.1 42.84,-6.15 7.48,-4.04 13.32,-11.08 17.36,-20.96 4.04,-9.89 6.15,-26.66 6.15,-50.18l0 -388.22c0,-24.41 -0.59,-39.24 -1.79,-44.48 -2.55,-10.03 -7.64,-17.23 -15.14,-21.72 -7.48,-4.34 -22.31,-6.59 -44.48,-6.59l-15.87 0 0 -36.84z"/>
  <path id="_2" class="fil2" d="M3341.98 550.73l73.09 0 189.62 511.79c9.28,25.61 18.71,42.68 28.31,50.92 9.44,8.25 22.31,12.44 38.34,12.44l9.73 0 0 36.84 -217.62 0 0 -36.84c7.04,-0.61 13.78,-0.9 20.52,-0.9 14.07,0 23.36,-1.5 27.7,-4.34 8.54,-5.54 12.74,-12.59 12.74,-20.97 0,-6.13 -4.04,-21.27 -12.28,-45.08l-41.34 -118.33 -220.77 0 -47.63 132.25c-4.95,13.78 -7.34,23.21 -7.34,28.46 0,5.85 1.51,10.93 4.5,15.28 3.14,4.49 7.33,7.78 12.58,9.88 5.24,2.25 13.78,3.29 25.46,3.29 7.94,0 14.38,0.15 19.32,0.46l0 36.84 -183.02 0 0 -36.84c16.92,0 29.2,-1.66 36.69,-5.09 7.48,-3.3 13.93,-8.69 19.47,-16.18 5.54,-7.34 12.89,-23.06 22.02,-47.03l189.92 -506.85zm-76.39 342.39l188.87 0 -94.21 -263.32 -94.66 263.32zm48.38 -389.12l0 -15.27 81.33 -59.92c27.86,-20.52 51.08,-30.86 69.95,-30.86 8.68,0 16.18,3.15 22.16,9.44 6,6.29 8.99,14.23 8.99,23.52 0,11.53 -4.04,20.96 -12.28,28.46 -8.24,7.49 -23.06,13.48 -44.48,18.28l-125.66 26.35z"/>
  <path id="_3" class="fil2" d="M3725.71 550.73l236.35 0 0 36.84 -22.01 0c-16.93,0 -28.91,1.65 -35.95,4.8 -7.04,3.29 -12.13,8.09 -15.42,14.22 -3.15,6.15 -4.8,17.23 -4.8,33.11l0 426.26c0,19.63 0.75,31.3 2.25,35.05 1.65,5.24 5.54,9.14 11.38,11.39 4.19,1.79 16.03,2.7 35.65,2.7l33.09 0c37.89,0 70.85,-5.39 98.7,-16.32 27.86,-10.94 51.98,-26.81 72.05,-47.64 20.22,-20.81 39.69,-51.97 58.26,-93.31l39.09 13.18 -68.45 191.71 -440.19 0 0 -36.84 19.32 0c18.72,0 31.3,-1.66 37.74,-4.95 6.44,-3.29 11.38,-8.68 14.98,-16.18 3.45,-7.64 5.24,-20.67 5.24,-39.09l0 -415.18c0,-21.27 -1.65,-35.5 -4.8,-42.69 -3.29,-7.33 -7.93,-12.43 -14.07,-15.57 -6.15,-3.15 -19.17,-4.65 -39.09,-4.65l-19.32 0 0 -36.84z"/>
  <path id="_4" class="fil2" d="M4259.67 550.73l233.65 0 0 36.84 -17.97 0c-16.78,0 -29.06,2.4 -36.54,7.04 -7.64,4.65 -13.18,11.39 -16.63,19.92 -3.44,8.69 -5.24,25.46 -5.24,50.32l0 394.52c0,19.92 1.95,34.16 5.7,42.54 3.74,8.39 9.13,14.38 15.87,18.27 6.9,3.75 19.18,5.7 36.85,5.7l17.97 0 0 36.84 -233.65 0 0 -36.84 19.32 0c17.23,0 29.51,-1.95 36.69,-6 7.2,-3.9 12.28,-9.58 15.58,-17.07 3.14,-7.49 4.79,-22.02 4.79,-43.44l0 -402.6c0,-22.92 -1.65,-38.34 -4.79,-46.13 -3.3,-7.94 -8.39,-13.78 -15.58,-17.52 -7.19,-3.75 -19.47,-5.54 -36.69,-5.54l-19.32 0 0 -36.84z"/>
  <path id="_5" class="fil2" d="M4983.54 550.73l31.61 0 46.88 188.72 -40.44 12.58c-25.77,-52.72 -60.07,-94.36 -102.76,-124.61 -35.2,-25.31 -74.14,-38.05 -116.82,-38.05 -25.77,0 -48.98,4.65 -69.5,13.79 -20.37,9.29 -35.8,21.11 -45.98,35.79 -10.34,14.53 -15.43,29.51 -15.43,44.63 0,13.79 3.9,26.96 11.83,39.85 7.94,12.89 20.07,24.26 36.25,34 16.03,9.73 42.54,20.07 79.23,30.86l114.73 32.96c14.07,4.04 34.45,11.97 61.11,23.66 26.81,11.69 47.64,23.97 62.46,37 14.98,13.02 26.66,28.9 35.05,47.77 8.53,18.87 12.73,39.24 12.73,61.11 0,48.53 -21.27,90.92 -63.8,127.32 -42.54,36.4 -97.66,54.51 -165.21,54.51 -34.75,0 -65.9,-5.08 -93.46,-15.13 -27.41,-10.03 -57.06,-27.86 -88.97,-53.62l-20.22 58.87 -30.86 0 -40.74 -220.17 40.44 -8.09c14.98,40.44 34.74,74.88 59.61,103.04 24.71,28.31 52.13,49.58 82.08,64.11 30.1,14.37 60.66,21.57 91.66,21.57 42.23,0 79.23,-12.74 110.83,-38.05 26.37,-21.26 39.55,-46.28 39.55,-75.18 0,-26.51 -9.6,-48.23 -28.62,-65.16 -19.32,-16.92 -53.92,-32.65 -103.65,-47.18l-109.63 -31.45c-61.56,-17.82 -105,-40.59 -130.16,-68.3 -25.16,-27.7 -37.74,-59.61 -37.74,-95.41 0,-28 8.24,-53.92 24.57,-77.73 16.32,-23.82 41.48,-43.74 75.49,-59.77 33.85,-16.03 70.99,-24.12 111.43,-24.12 33.85,0 66.36,5.85 97.36,17.68 21.87,8.24 42.09,19.91 60.5,35.2l18.57 -42.99z"/>
  <path id="_6" class="fil2" d="M5165.52 550.73l497.87 0 57.51 160.71 -38.64 14.53c-9.74,-26.37 -20.22,-47.03 -31.76,-62.01 -11.38,-15.13 -25.17,-27.86 -41.19,-38.35 -16.02,-10.64 -32.04,-17.52 -48.38,-21.11 -16.32,-3.45 -45.83,-5.24 -88.36,-5.24l-148.88 0 0 224.67 73.99 0c27.27,0 47.78,-4.65 61.71,-13.94 13.93,-9.14 23.67,-20.67 28.91,-34.59 4.04,-10.19 6.13,-28.16 6.13,-53.62l0 -10.19 43.14 0 0 268.71 -43.14 0 0 -23.22c0,-20.52 -1.5,-35.35 -4.64,-44.34 -3,-9.13 -8.69,-17.67 -16.93,-25.76 -8.24,-8.09 -17.08,-13.48 -26.66,-16.47 -9.44,-2.84 -25.76,-4.34 -48.53,-4.34l-73.99 0 0 198.3c0,20.67 0.9,33.25 2.86,37.74 1.94,4.49 5.08,7.79 9.44,9.88 4.49,1.95 16.47,3 36.09,3l92.12 0c51.37,0 91.52,-6.15 120.42,-18.43 28.91,-12.28 54.37,-31 76.39,-56.32 17.23,-19.61 33.85,-47.48 49.58,-83.43l39.98 14.08 -68.29 191.71 -516.74 0 0 -36.84 17.52 0c20.37,0 32.95,-1.35 37.89,-3.9 7.64,-3.9 13.48,-9.89 17.52,-18.43 2.84,-5.69 4.34,-18.43 4.34,-37.89l0 -421.48c0,-19.17 -1.94,-32.05 -5.69,-38.49 -3.75,-6.44 -10.34,-11.54 -19.61,-14.99 -4.95,-2.09 -22.32,-3.14 -51.98,-3.14l0 -36.84z"/>
  <path id="_7" class="fil2" d="M6098.33 550.73l236.35 0 0 36.84 -22.01 0c-16.93,0 -28.91,1.65 -35.95,4.8 -7.04,3.29 -12.13,8.09 -15.42,14.22 -3.15,6.15 -4.8,17.23 -4.8,33.11l0 426.26c0,19.63 0.75,31.3 2.25,35.05 1.65,5.24 5.54,9.14 11.38,11.39 4.19,1.79 16.03,2.7 35.65,2.7l33.09 0c37.89,0 70.85,-5.39 98.7,-16.32 27.86,-10.94 51.98,-26.81 72.05,-47.64 20.22,-20.81 39.69,-51.97 58.26,-93.31l39.09 13.18 -68.45 191.71 -440.19 0 0 -36.84 19.32 0c18.72,0 31.3,-1.66 37.74,-4.95 6.44,-3.29 11.38,-8.68 14.98,-16.18 3.45,-7.64 5.24,-20.67 5.24,-39.09l0 -415.18c0,-21.27 -1.65,-35.5 -4.8,-42.69 -3.29,-7.33 -7.93,-12.43 -14.07,-15.57 -6.15,-3.15 -19.17,-4.65 -39.09,-4.65l-19.32 0 0 -36.84z"/>
  <path id="_8" class="fil2" d="M6639.47 550.73l497.87 0 57.51 160.71 -38.64 14.53c-9.74,-26.37 -20.22,-47.03 -31.76,-62.01 -11.38,-15.13 -25.17,-27.86 -41.19,-38.35 -16.02,-10.64 -32.04,-17.52 -48.38,-21.11 -16.32,-3.45 -45.83,-5.24 -88.36,-5.24l-148.88 0 0 224.67 73.99 0c27.27,0 47.78,-4.65 61.71,-13.94 13.93,-9.14 23.67,-20.67 28.91,-34.59 4.04,-10.19 6.13,-28.16 6.13,-53.62l0 -10.19 43.14 0 0 268.71 -43.14 0 0 -23.22c0,-20.52 -1.5,-35.35 -4.64,-44.34 -3,-9.13 -8.69,-17.67 -16.93,-25.76 -8.24,-8.09 -17.08,-13.48 -26.66,-16.47 -9.44,-2.84 -25.76,-4.34 -48.53,-4.34l-73.99 0 0 198.3c0,20.67 0.9,33.25 2.86,37.74 1.94,4.49 5.08,7.79 9.44,9.88 4.49,1.95 16.47,3 36.09,3l92.12 0c51.37,0 91.52,-6.15 120.42,-18.43 28.91,-12.28 54.37,-31 76.39,-56.32 17.23,-19.61 33.85,-47.48 49.58,-83.43l39.98 14.08 -68.29 191.71 -516.74 0 0 -36.84 17.52 0c20.37,0 32.95,-1.35 37.89,-3.9 7.64,-3.9 13.48,-9.89 17.52,-18.43 2.84,-5.69 4.34,-18.43 4.34,-37.89l0 -421.48c0,-19.17 -1.94,-32.05 -5.69,-38.49 -3.75,-6.44 -10.34,-11.54 -19.61,-14.99 -4.95,-2.09 -22.32,-3.14 -51.98,-3.14l0 -36.84z"/>
  <path id="_9" class="fil2" d="M7769.09 550.73l32.05 0 49.88 188.57 -39.54 13.63c-26.37,-59.46 -56.62,-101.85 -90.77,-127.32 -34.29,-25.3 -73.09,-38.04 -116.37,-38.04 -62.16,0 -114.43,25.91 -156.52,77.59 -42.1,51.67 -63.21,113.23 -63.21,184.68 0,51.37 10.78,98.55 32.35,141.54 21.57,42.84 50.32,75.64 86.42,98.11 36.1,22.46 74.29,33.7 114.73,33.7 26.06,0 50.93,-4.8 74.59,-14.23 23.52,-9.44 42.69,-20.67 57.37,-33.85 10.78,-9.88 18.12,-20.81 22.01,-32.65 3.75,-11.98 5.54,-28.61 5.24,-49.88l0 -28.76c0,-23.06 -2.7,-39.39 -8.09,-48.97 -5.39,-9.58 -13.18,-16.47 -23.06,-20.52 -7.64,-3.15 -28.01,-4.8 -61.41,-4.8l0 -36.84 247.14 0 0 36.84 -20.22 0c-17.23,0 -28.91,1.65 -35.2,5.09 -6.29,3.29 -10.93,8.53 -13.94,15.42 -2.84,7.05 -4.34,20.82 -4.34,41.19l0 211.49 -43.14 0 -23.21 -53.92c-24.71,17.82 -50.93,31.6 -78.63,41.49 -41.64,14.83 -82.83,22.31 -123.42,22.31 -82.38,0 -152.77,-30.1 -211.49,-90.46 -58.72,-60.2 -88.07,-135.25 -88.07,-225.26 0,-89.26 29.66,-164.31 89.12,-224.97 59.46,-60.66 130.61,-91.07 213.43,-91.07 20.82,0 41.34,2.1 61.56,6.15 20.22,4.04 38.65,9.88 55.27,17.38 12.58,5.54 27.26,14.68 44.04,27.11l15.42 -40.74z"/>
  <path id="_10" class="fil2" d="M8231.16 550.73l73.09 0 189.62 511.79c9.28,25.61 18.71,42.68 28.31,50.92 9.44,8.25 22.31,12.44 38.34,12.44l9.73 0 0 36.84 -217.62 0 0 -36.84c7.04,-0.61 13.78,-0.9 20.52,-0.9 14.07,0 23.36,-1.5 27.7,-4.34 8.54,-5.54 12.74,-12.59 12.74,-20.97 0,-6.13 -4.04,-21.27 -12.28,-45.08l-41.34 -118.33 -220.77 0 -47.63 132.25c-4.95,13.78 -7.34,23.21 -7.34,28.46 0,5.85 1.51,10.93 4.5,15.28 3.14,4.49 7.33,7.78 12.58,9.88 5.24,2.25 13.78,3.29 25.46,3.29 7.94,0 14.38,0.15 19.32,0.46l0 36.84 -183.02 0 0 -36.84c16.92,0 29.2,-1.66 36.69,-5.09 7.48,-3.3 13.93,-8.69 19.47,-16.18 5.54,-7.34 12.89,-23.06 22.02,-47.03l189.92 -506.85zm-76.39 342.39l188.87 0 -94.21 -263.32 -94.66 263.32z"/>
  <path id="_11" class="fil2" d="M8614.89 550.73l236.35 0 0 36.84 -22.01 0c-16.93,0 -28.91,1.65 -35.95,4.8 -7.04,3.29 -12.13,8.09 -15.42,14.22 -3.15,6.15 -4.8,17.23 -4.8,33.11l0 426.26c0,19.63 0.75,31.3 2.25,35.05 1.65,5.24 5.54,9.14 11.38,11.39 4.19,1.79 16.03,2.7 35.65,2.7l33.09 0c37.89,0 70.85,-5.39 98.7,-16.32 27.86,-10.94 51.98,-26.81 72.05,-47.64 20.22,-20.81 39.69,-51.97 58.26,-93.31l39.09 13.18 -68.45 191.71 -440.19 0 0 -36.84 19.32 0c18.72,0 31.3,-1.66 37.74,-4.95 6.44,-3.29 11.38,-8.68 14.98,-16.18 3.45,-7.64 5.24,-20.67 5.24,-39.09l0 -415.18c0,-21.27 -1.65,-35.5 -4.8,-42.69 -3.29,-7.33 -7.93,-12.43 -14.07,-15.57 -6.15,-3.15 -19.17,-4.65 -39.09,-4.65l-19.32 0 0 -36.84z"/>
  <path class="fil3" d="M1877.79 1467.4l0 18.54c12.52,-7.81 22.08,-12.81 28.7,-15.11 6.62,-2.3 13.77,-3.43 21.29,-3.43 19.2,0 34.81,7.08 46.89,21.18 13.82,16.18 20.73,36.85 20.73,61.95 0,24.04 -6.01,44.21 -18.09,60.38 -13.82,18.7 -32.35,28.02 -55.61,28.02 -7.47,0 -13.99,-0.84 -19.6,-2.53 -5.56,-1.69 -11.68,-4.78 -18.25,-9.27l0 33.31c0,6.62 0.33,10.61 1.01,11.91 0.73,1.69 1.96,2.87 3.7,3.59 1.69,0.73 5.95,1.07 12.81,1.07l7.75 0 0 31.68 -102.11 0 0 -31.68 5.55 0c7.47,0 12.03,-0.28 13.6,-0.9 1.57,-0.62 2.81,-1.85 3.7,-3.76 0.96,-1.91 1.41,-5.85 1.41,-11.74l0 -146.71 -24.26 0 0 -32.35c11.79,-1.4 21.84,-3.21 30.15,-5.34 8.26,-2.08 16.69,-5.05 25.22,-8.82l15.39 0zm6.07 51.56l0 53.13c0,8.37 0.79,14.33 2.36,17.86 1.62,3.48 4.38,6.35 8.26,8.6 3.87,2.19 8.36,3.31 13.42,3.31 8.87,0 16.24,-4.04 22.08,-12.2 5.9,-8.14 8.82,-20.5 8.82,-37.12 0,-15.39 -2.53,-26.79 -7.64,-34.26 -5.11,-7.42 -11.4,-11.12 -18.82,-11.12 -8.59,0 -18.09,3.93 -28.47,11.79z"/>
  <path id="_1_0" class="fil3" d="M2095.21 1467.4l0 23.93c8.82,-9.27 16.45,-15.56 22.92,-18.87 6.4,-3.38 12.63,-5.06 18.59,-5.06 5.39,0 10.22,1.24 14.44,3.71 4.27,2.47 7.64,6.01 10.12,10.61 2.47,4.61 3.7,9.54 3.7,14.83 0,6.91 -2.3,13.14 -6.86,18.76 -4.54,5.56 -10.94,8.37 -19.2,8.37 -2.2,0 -4.16,-0.17 -5.9,-0.51 -1.69,-0.34 -5.28,-1.4 -10.78,-3.26 -2.87,-0.84 -5.22,-1.29 -7.08,-1.29 -2.87,0 -7.58,1.8 -14.2,5.39l0 64.15c0,5.45 0.39,8.98 1.23,10.61 0.79,1.68 2.13,2.87 3.93,3.65 1.86,0.72 5.85,1.11 11.96,1.11l7.14 0 0 31.68 -101.1 0 0 -31.68 8.42 0c6.07,0 9.83,-0.33 11.29,-1.01 1.52,-0.62 2.64,-1.79 3.36,-3.43 0.79,-1.62 1.19,-5.28 1.19,-10.94l0 -75.26 -24.26 0 0 -31.62c17.85,-1.13 36.4,-5.73 55.66,-13.88l15.44 0z"/>
  <path id="_2_1" class="fil3" d="M2326.45 1574.35l22.52 22.63c-12.93,14.72 -26.12,25.44 -39.55,32.02 -13.43,6.62 -27.97,9.93 -43.53,9.93 -25,0 -46.05,-8.43 -63.13,-25.33 -17.13,-16.91 -25.66,-37.3 -25.66,-61.29 0,-15.72 3.82,-30.1 11.52,-43.19 7.7,-13.09 18.36,-23.31 31.96,-30.66 13.65,-7.36 29.04,-11.07 46.28,-11.07 11.01,0 21.01,1.58 30,4.78 8.99,3.15 16.91,7.7 23.65,13.6 6.74,5.84 12.19,12.97 16.28,21.35 4.16,8.36 6.96,17.01 8.48,25.94 0.68,4.5 1.02,11.58 1.02,21.29l-110.88 0c0.22,13.87 4.32,25.1 12.24,33.65 7.92,8.59 17.69,12.85 29.16,12.85 7.36,0 15.39,-2.19 24.04,-6.57 8.64,-4.44 17.18,-11.06 25.61,-19.93zm-32.74 -47.64c-0.8,-6.51 -2.37,-11.62 -4.72,-15.33 -2.36,-3.77 -5.56,-6.74 -9.55,-8.99 -4.04,-2.19 -8.19,-3.31 -12.63,-3.31 -4.61,0 -9.04,1.13 -13.37,3.43 -4.27,2.24 -7.7,5.33 -10.27,9.27 -2.58,3.87 -4.27,8.87 -5.05,14.93l55.61 0z"/>
  <path id="_3_2" class="fil3" d="M2522.97 1573.11l24.16 21.12c-12.93,15.61 -26.34,26.96 -40.28,34.04 -13.93,7.13 -28.81,10.67 -44.71,10.67 -25.44,0 -46.67,-8.26 -63.7,-24.76 -17.01,-16.52 -25.55,-36.63 -25.55,-60.33 0,-16.06 3.98,-30.77 11.91,-44.14 7.97,-13.31 18.87,-23.7 32.74,-31.11 13.87,-7.47 30.22,-11.19 49.09,-11.19 22.58,0 40.99,5.23 55.32,15.73 14.32,10.44 21.45,21.51 21.45,33.14 0,4.89 -1.13,9.33 -3.36,13.2 -2.25,3.93 -5.68,7.08 -10.29,9.49 -4.61,2.42 -9.49,3.6 -14.66,3.6 -4.15,0 -7.92,-0.85 -11.18,-2.47 -3.31,-1.63 -6.06,-3.7 -8.26,-6.23 -0.96,-1.07 -2.87,-4.45 -5.72,-10.12 -3.65,-7.08 -6.41,-11.79 -8.43,-14.1 -1.96,-2.3 -4.33,-4.04 -7.08,-5.29 -2.7,-1.28 -5.84,-1.91 -9.38,-1.91 -5.67,0 -11.11,1.8 -16.34,5.46 -5.23,3.65 -9.5,9.21 -12.86,16.62 -3.31,7.42 -5,15.67 -5,24.83 0,10.05 1.96,19.04 5.89,27.08 3.99,8.02 9.28,14.1 15.9,18.19 6.62,4.16 13.93,6.23 21.96,6.23 7.64,0 15.39,-2.07 23.19,-6.18 7.76,-4.15 16.18,-11.35 25.17,-21.57z"/>
  <path id="_4_3" class="fil3" d="M2619.07 1393.94c8.37,0 15.44,2.92 21.35,8.82 5.9,5.84 8.82,12.92 8.82,21.23 0,8.48 -2.92,15.61 -8.82,21.45 -5.9,5.9 -12.97,8.82 -21.35,8.82 -8.36,0 -15.44,-2.92 -21.35,-8.82 -5.89,-5.84 -8.81,-12.92 -8.81,-21.28 0,-8.2 3.03,-15.27 9.03,-21.29 6.07,-5.95 13.09,-8.93 21.12,-8.93zm26.79 73.46l0 121.38c0,5.78 0.34,9.37 1.02,10.67 0.62,1.29 1.79,2.3 3.53,3.04 1.69,0.73 5.5,1.06 11.45,1.06l8.94 0 0 31.68 -101.78 0 0 -31.68 8.7 0c5.68,0 9.33,-0.28 10.9,-0.89 1.57,-0.62 2.75,-1.63 3.53,-3.04 0.73,-1.4 1.13,-4.27 1.13,-8.53l0 -78.18 -24.26 0 0 -31c8.65,-0.46 16.96,-1.35 24.94,-2.81 7.92,-1.4 15.05,-3.14 21.28,-5.11 4.04,-1.29 9.04,-3.48 15,-6.58l15.61 0z"/>
  <path id="_5_4" class="fil3" d="M2801.05 1471.12l21.51 0 13.31 45.77 -31 12.52c-5.89,-9.44 -13.31,-16.84 -22.24,-22.24 -8.94,-5.39 -17.81,-8.09 -26.57,-8.09 -5.78,0 -10.12,0.96 -12.98,2.92 -2.86,1.91 -4.27,4.27 -4.27,6.96 0,2.25 1.02,4.38 3.04,6.29 2.03,1.96 6.23,4.04 12.58,6.18l45.16 16.12c8.03,2.8 15.67,6.4 23.02,10.67 7.37,4.27 12.86,9.49 16.52,15.68 3.65,6.18 5.51,13.42 5.51,21.73 0,14.83 -5.68,27.08 -17.08,36.57 -13.36,11.18 -30.05,16.74 -49.98,16.74 -17.08,0 -31.96,-4.27 -44.65,-12.75l-4.61 9.04 -21.85 0 -20.22 -53.64 31 -13.09c7.76,12.08 17.35,21.51 28.7,28.42 11.35,6.91 21.79,10.34 31.34,10.34 5.9,0 10.84,-1.35 14.88,-4.11 3.09,-2.19 4.61,-4.77 4.61,-7.75 0,-2.53 -1.18,-4.88 -3.59,-7.19 -2.37,-2.3 -7.64,-4.89 -15.78,-7.75l-35.5 -12.37c-19.59,-6.85 -32.91,-14.2 -39.98,-22.01 -7.08,-7.87 -10.61,-17.13 -10.61,-27.86 0,-13.76 5.5,-25.33 16.57,-34.76 12.63,-10.73 28.19,-16.07 46.67,-16.07 16.45,0 30.49,3.65 42.23,11.02l4.27 -7.3z"/>
  <path id="_6_5" class="fil3" d="M2964.95 1535.82l0 -12.08c0,-7.19 -0.63,-12.13 -1.8,-14.83 -1.23,-2.75 -3.43,-5 -6.62,-6.79 -3.21,-1.8 -7.2,-2.7 -11.91,-2.7 -3.65,0 -6.96,0.62 -9.95,1.79 -2.97,1.18 -5.33,2.7 -7.07,4.55 -1.8,1.85 -3.82,5.45 -6.12,10.78 -2.98,6.74 -6.52,11.57 -10.61,14.54 -4.11,2.92 -8.99,4.38 -14.55,4.38 -7.02,0 -12.8,-2.19 -17.3,-6.57 -4.49,-4.38 -6.74,-9.78 -6.74,-16.23 0,-7.3 2.3,-13.82 6.91,-19.5 6.18,-7.58 15.34,-13.76 27.52,-18.59 12.19,-4.78 25.9,-7.2 41.12,-7.2 15.27,0 28.24,2.47 38.98,7.37 10.67,4.94 18.14,10.84 22.35,17.63 4.21,6.86 6.35,17.3 6.35,31.29l0 58.7c0,7.24 0.39,11.85 1.18,13.87 0.73,2.02 2.42,3.81 4.95,5.33 2.53,1.52 5.34,2.3 8.43,2.3 3.09,0 7.24,-0.89 12.41,-2.63l0 32.24c-9.32,2.97 -18.31,4.44 -26.91,4.44 -10.1,0 -18.7,-1.62 -25.89,-4.95 -7.13,-3.31 -13.14,-8.26 -17.97,-14.88 -11.02,7.13 -20.95,12.25 -29.94,15.27 -8.93,3.04 -17.58,4.55 -25.95,4.55 -15.72,0 -28.41,-4.44 -38.14,-13.26 -9.66,-8.82 -14.49,-19.71 -14.49,-32.63 0,-7.37 1.69,-14.11 5.05,-20.22 3.38,-6.12 8.37,-11.52 15,-16.12 6.69,-4.61 16.96,-8.65 30.95,-12.25 13.93,-3.53 30.83,-6.11 50.78,-7.63zm0 27.29c-14.44,2.08 -24.67,4.21 -30.61,6.35 -5.95,2.14 -10.23,4.78 -12.76,8.03 -2.53,3.26 -3.81,6.57 -3.81,9.95 0,4.38 1.62,8.02 4.94,11.01 3.31,2.97 7.81,4.44 13.43,4.44 3.65,0 7.87,-0.96 12.69,-2.81 4.78,-1.85 10.17,-4.61 16.12,-8.19l0 -28.76zm25.16 -163.11l16.96 8.43c-1.96,9.72 -7.53,18.37 -16.62,25.95 -7.7,6.29 -17.13,9.44 -28.48,9.44 -7.97,0 -19.09,-2.13 -33.36,-6.46 -5.95,-1.74 -9.83,-2.63 -11.69,-2.63 -1.45,0 -2.75,0.28 -3.99,0.89 -1.18,0.63 -3.25,2.37 -6.23,5.17l-18.59 -10.39c3.09,-8.93 8.7,-16.5 16.96,-22.75 8.19,-6.23 16.67,-9.32 25.33,-9.32 3.21,0 6.18,0.22 9.04,0.73 2.87,0.5 7.75,1.74 14.66,3.7 10.51,3.09 17.92,4.66 22.18,4.66 1.97,0 3.71,-0.34 5.17,-0.96 1.52,-0.62 3.55,-2.08 6.18,-4.44l2.47 -2.03z"/>
  <path id="_7_6" class="fil3" d="M3151.82 1467.4c18.76,0 35.1,3.65 49.04,11.02 13.98,7.3 24.66,17.29 32.18,29.88 7.53,12.63 11.28,27.46 11.28,44.37 0,25.61 -8.31,46.39 -25,62.35 -16.67,15.95 -38.98,23.92 -66.84,23.92 -28.41,0 -50.99,-8.02 -67.79,-24.09 -16.23,-15.34 -24.37,-36.06 -24.37,-62.18 0,-17.13 3.7,-31.9 11.12,-44.26 7.41,-12.35 18.14,-22.29 32.18,-29.76 14.04,-7.47 30.1,-11.24 48.19,-11.24zm0.84 36.07c-6.28,0 -12.19,1.85 -17.69,5.56 -5.5,3.7 -9.77,9.15 -12.8,16.4 -3.04,7.19 -4.55,16.35 -4.55,27.52 0,11.45 1.46,20.94 4.44,28.48 2.98,7.53 7.13,13.14 12.35,16.73 5.23,3.6 10.95,5.39 17.25,5.39 9.71,0 18.03,-4.04 25,-12.19 6.91,-8.14 10.39,-20.78 10.39,-37.97 0,-16.57 -3.21,-29.04 -9.66,-37.4 -6.46,-8.37 -14.72,-12.52 -24.72,-12.52z"/>
  <path id="_8_7" class="fil3" d="M3435.34 1393.94c8.31,0 15.39,2.92 21.23,8.82 5.9,5.89 8.82,12.97 8.82,21.35 0,8.25 -2.92,15.33 -8.82,21.28 -5.84,5.9 -12.92,8.87 -21.23,8.87 -8.26,0 -15.27,-2.92 -21.11,-8.82 -5.9,-5.89 -8.82,-12.97 -8.82,-21.33 0,-8.37 2.92,-15.45 8.82,-21.35 5.84,-5.9 12.85,-8.82 21.11,-8.82zm26.68 73.46l0 174.96c0,16.62 -2.42,29.32 -7.25,38.03 -4.83,8.7 -12.8,15.89 -23.87,21.5 -11.12,5.68 -24.32,8.48 -39.71,8.48 -11.18,0 -20.73,-1.62 -28.53,-4.88 -7.87,-3.21 -13.77,-7.53 -17.69,-12.92 -3.99,-5.39 -5.95,-10.95 -5.95,-16.69 0,-6.06 2.42,-11.18 7.25,-15.44 4.83,-4.21 10.27,-6.35 16.28,-6.35 3.82,0 7.81,1.18 11.96,3.48 4.11,2.3 8.87,6.63 14.38,12.97 3.26,3.88 6.23,5.8 8.99,5.8 3.59,0 6.4,-1.46 8.48,-4.45 2.08,-2.92 3.09,-8.25 3.09,-15.89l0 -143.11 -24.26 0 0 -31.34c11.35,-0.22 21.96,-1.46 31.9,-3.7 9.89,-2.25 19.72,-5.73 29.38,-10.45l15.56 0z"/>
  <path id="_9_8" class="fil3" d="M3494.66 1471.12l76.84 -1.35 0 106.43c0,7.59 0.45,12.59 1.4,15.11 0.96,2.53 2.64,4.55 5.17,6.18 2.46,1.57 5.61,2.36 9.37,2.36 5.51,0 11.35,-1.28 17.59,-3.93 2.41,-1.07 8.87,-4.95 19.37,-11.57l0 -64.14c0,-5.56 -0.45,-9.44 -1.35,-11.52 -0.84,-2.08 -2.13,-3.6 -3.76,-4.49 -1.63,-0.96 -4.83,-1.41 -9.61,-1.41l-9.55 0 0 -31.67 76.84 -1.35 0 117.38c0,6.12 0.34,9.95 1.07,11.57 0.67,1.58 1.79,2.7 3.36,3.43 1.57,0.73 5.34,1.07 11.24,1.07l8.59 0 0 32.01 -71.77 2.03 0 -19.55c-9.67,7.08 -19.38,12.35 -29.16,15.9 -9.78,3.53 -19.6,5.33 -29.49,5.33 -7.92,0 -15.17,-1.28 -21.84,-3.87 -6.63,-2.58 -12.2,-6.01 -16.69,-10.34 -4.55,-4.32 -7.87,-9.37 -10.05,-15.16 -2.2,-5.85 -3.31,-13.26 -3.31,-22.35l0 -67.69c0,-6.23 -0.34,-10.17 -1.07,-11.79 -0.73,-1.69 -1.91,-2.87 -3.53,-3.7 -1.69,-0.85 -5.17,-1.24 -10.56,-1.24l-9.1 0 0 -31.67z"/>
  <path id="_10_9" class="fil3" d="M3793.63 1467.4l0 23.93c8.82,-9.27 16.45,-15.56 22.92,-18.87 6.4,-3.38 12.63,-5.06 18.59,-5.06 5.39,0 10.22,1.24 14.44,3.71 4.27,2.47 7.64,6.01 10.12,10.61 2.47,4.61 3.7,9.54 3.7,14.83 0,6.91 -2.3,13.14 -6.86,18.76 -4.54,5.56 -10.94,8.37 -19.2,8.37 -2.2,0 -4.16,-0.17 -5.9,-0.51 -1.69,-0.34 -5.28,-1.4 -10.78,-3.26 -2.87,-0.84 -5.22,-1.29 -7.08,-1.29 -2.87,0 -7.58,1.8 -14.2,5.39l0 64.15c0,5.45 0.39,8.98 1.23,10.61 0.79,1.68 2.13,2.87 3.93,3.65 1.86,0.72 5.85,1.11 11.96,1.11l7.14 0 0 31.68 -101.1 0 0 -31.68 8.42 0c6.07,0 9.83,-0.33 11.29,-1.01 1.52,-0.62 2.64,-1.79 3.36,-3.43 0.79,-1.62 1.19,-5.28 1.19,-10.94l0 -75.26 -24.26 0 0 -31.62c17.85,-1.13 36.4,-5.73 55.66,-13.88l15.44 0z"/>
  <path id="_11_10" class="fil3" d="M3953.36 1467.4l0 121.38c0,5.78 0.34,9.37 1.02,10.67 0.62,1.29 1.79,2.3 3.53,3.04 1.69,0.73 5.5,1.06 11.45,1.06l8.94 0 0 31.68 -101.78 0 0 -31.68 8.7 0c5.68,0 9.33,-0.28 10.9,-0.89 1.57,-0.62 2.75,-1.63 3.53,-3.04 0.73,-1.4 1.13,-4.27 1.13,-8.53l0 -78.18 -24.26 0 0 -31c8.65,-0.46 16.96,-1.35 24.94,-2.81 7.92,-1.4 15.05,-3.14 21.28,-5.11 4.04,-1.29 9.04,-3.48 15,-6.58l15.61 0zm-65.88 -17.85l-6.57 -16.63 35.39 -31.57c10.22,-8.98 19.6,-13.48 28.19,-13.48 6.57,0 12.19,2.37 16.79,7.08 4.61,4.72 6.91,10.56 6.91,17.59 0,5.16 -1.96,10.16 -5.95,14.99 -3.93,4.83 -10.89,8.32 -20.89,10.56l-53.87 11.46z"/>
  <path id="_12" class="fil3" d="M4167.64 1393.6l0 190.92c0,7.53 0.34,12.07 0.96,13.7 0.68,1.57 1.8,2.75 3.31,3.53 1.58,0.73 5.73,1.13 12.42,1.13l7.58 0 0 32.35 -71.1 2.36 0 -17.13c-10.27,6.96 -19.32,11.74 -27.13,14.44 -7.75,2.7 -15.56,4.04 -23.31,4.04 -12.64,0 -24.21,-3.43 -34.82,-10.22 -10.56,-6.85 -19.2,-17.01 -25.94,-30.44 -6.74,-13.43 -10.12,-28.36 -10.12,-44.76 0,-16.63 3.43,-31.68 10.27,-45.22 6.86,-13.48 15.85,-23.65 26.85,-30.56 11.01,-6.91 23.36,-10.34 36.96,-10.34 7.02,0 13.76,0.85 20.16,2.54 6.46,1.68 13.54,4.66 21.35,8.93l0 -39.43 -24.26 0 0 -31.67c13.65,-1.35 24.72,-3.04 33.25,-5.06 8.48,-2.07 17.69,-5.11 27.58,-9.1l16.01 0zm-52.57 194.01l0 -54.55c0,-6.79 -0.5,-11.62 -1.45,-14.44 -1.35,-4.04 -4.33,-7.58 -8.99,-10.61 -4.66,-3.03 -9.88,-4.54 -15.56,-4.54 -5.95,0 -11.45,1.74 -16.52,5.28 -5.05,3.55 -9.03,8.94 -12.02,16.18 -2.97,7.3 -4.44,16.35 -4.44,27.25 0,15.05 3.38,27.12 10.05,36.28 5.17,7.13 12.03,10.73 20.61,10.73 3.71,0 7.3,-0.62 10.68,-1.86 3.42,-1.29 9.32,-4.49 17.63,-9.71z"/>
  <path id="_13" class="fil3" d="M4263.57 1393.94c8.37,0 15.44,2.92 21.35,8.82 5.9,5.84 8.82,12.92 8.82,21.23 0,8.48 -2.92,15.61 -8.82,21.45 -5.9,5.9 -12.97,8.82 -21.35,8.82 -8.36,0 -15.44,-2.92 -21.35,-8.82 -5.89,-5.84 -8.81,-12.92 -8.81,-21.28 0,-8.2 3.03,-15.27 9.03,-21.29 6.07,-5.95 13.09,-8.93 21.12,-8.93zm26.79 73.46l0 121.38c0,5.78 0.34,9.37 1.02,10.67 0.62,1.29 1.79,2.3 3.53,3.04 1.69,0.73 5.5,1.06 11.45,1.06l8.94 0 0 31.68 -101.78 0 0 -31.68 8.7 0c5.68,0 9.33,-0.28 10.9,-0.89 1.57,-0.62 2.75,-1.63 3.53,-3.04 0.73,-1.4 1.13,-4.27 1.13,-8.53l0 -78.18 -24.26 0 0 -31c8.65,-0.46 16.96,-1.35 24.94,-2.81 7.92,-1.4 15.05,-3.14 21.28,-5.11 4.04,-1.29 9.04,-3.48 15,-6.58l15.61 0z"/>
  <path id="_14" class="fil3" d="M4484.2 1573.11l24.16 21.12c-12.93,15.61 -26.34,26.96 -40.28,34.04 -13.93,7.13 -28.81,10.67 -44.71,10.67 -25.44,0 -46.67,-8.26 -63.7,-24.76 -17.01,-16.52 -25.55,-36.63 -25.55,-60.33 0,-16.06 3.98,-30.77 11.91,-44.14 7.97,-13.31 18.87,-23.7 32.74,-31.11 13.87,-7.47 30.22,-11.19 49.09,-11.19 22.58,0 40.99,5.23 55.32,15.73 14.32,10.44 21.45,21.51 21.45,33.14 0,4.89 -1.13,9.33 -3.36,13.2 -2.25,3.93 -5.68,7.08 -10.29,9.49 -4.61,2.42 -9.49,3.6 -14.66,3.6 -4.15,0 -7.92,-0.85 -11.18,-2.47 -3.31,-1.63 -6.06,-3.7 -8.26,-6.23 -0.96,-1.07 -2.87,-4.45 -5.72,-10.12 -3.65,-7.08 -6.41,-11.79 -8.43,-14.1 -1.96,-2.3 -4.33,-4.04 -7.08,-5.29 -2.7,-1.28 -5.84,-1.91 -9.38,-1.91 -5.67,0 -11.11,1.8 -16.34,5.46 -5.23,3.65 -9.5,9.21 -12.86,16.62 -3.31,7.42 -5,15.67 -5,24.83 0,10.05 1.96,19.04 5.89,27.08 3.99,8.02 9.28,14.1 15.9,18.19 6.62,4.16 13.93,6.23 21.96,6.23 7.64,0 15.39,-2.07 23.19,-6.18 7.76,-4.15 16.18,-11.35 25.17,-21.57z"/>
  <path id="_15" class="fil3" d="M4629.68 1535.82l0 -12.08c0,-7.19 -0.63,-12.13 -1.8,-14.83 -1.23,-2.75 -3.43,-5 -6.62,-6.79 -3.21,-1.8 -7.2,-2.7 -11.91,-2.7 -3.65,0 -6.96,0.62 -9.95,1.79 -2.97,1.18 -5.33,2.7 -7.07,4.55 -1.8,1.85 -3.82,5.45 -6.12,10.78 -2.98,6.74 -6.52,11.57 -10.61,14.54 -4.11,2.92 -8.99,4.38 -14.55,4.38 -7.02,0 -12.8,-2.19 -17.3,-6.57 -4.49,-4.38 -6.74,-9.78 -6.74,-16.23 0,-7.3 2.3,-13.82 6.91,-19.5 6.18,-7.58 15.34,-13.76 27.52,-18.59 12.19,-4.78 25.9,-7.2 41.12,-7.2 15.27,0 28.24,2.47 38.98,7.37 10.67,4.94 18.14,10.84 22.35,17.63 4.21,6.86 6.35,17.3 6.35,31.29l0 58.7c0,7.24 0.39,11.85 1.18,13.87 0.73,2.02 2.42,3.81 4.95,5.33 2.53,1.52 5.34,2.3 8.43,2.3 3.09,0 7.24,-0.89 12.41,-2.63l0 32.24c-9.32,2.97 -18.31,4.44 -26.91,4.44 -10.1,0 -18.7,-1.62 -25.89,-4.95 -7.13,-3.31 -13.14,-8.26 -17.97,-14.88 -11.02,7.13 -20.95,12.25 -29.94,15.27 -8.93,3.04 -17.58,4.55 -25.95,4.55 -15.72,0 -28.41,-4.44 -38.14,-13.26 -9.66,-8.82 -14.49,-19.71 -14.49,-32.63 0,-7.37 1.69,-14.11 5.05,-20.22 3.38,-6.12 8.37,-11.52 15,-16.12 6.69,-4.61 16.96,-8.65 30.95,-12.25 13.93,-3.53 30.83,-6.11 50.78,-7.63zm0 27.29c-14.44,2.08 -24.67,4.21 -30.61,6.35 -5.95,2.14 -10.23,4.78 -12.76,8.03 -2.53,3.26 -3.81,6.57 -3.81,9.95 0,4.38 1.62,8.02 4.94,11.01 3.31,2.97 7.81,4.44 13.43,4.44 3.65,0 7.87,-0.96 12.69,-2.81 4.78,-1.85 10.17,-4.61 16.12,-8.19l0 -28.76z"/>
  <path id="_16" class="fil3" d="M4910.67 1467.4l0 18.54c12.52,-7.81 22.08,-12.81 28.7,-15.11 6.62,-2.3 13.77,-3.43 21.29,-3.43 19.2,0 34.81,7.08 46.89,21.18 13.82,16.18 20.73,36.85 20.73,61.95 0,24.04 -6.01,44.21 -18.09,60.38 -13.82,18.7 -32.35,28.02 -55.61,28.02 -7.47,0 -13.99,-0.84 -19.6,-2.53 -5.56,-1.69 -11.68,-4.78 -18.25,-9.27l0 33.31c0,6.62 0.33,10.61 1.01,11.91 0.73,1.69 1.96,2.87 3.7,3.59 1.69,0.73 5.95,1.07 12.81,1.07l7.75 0 0 31.68 -102.11 0 0 -31.68 5.55 0c7.47,0 12.03,-0.28 13.6,-0.9 1.57,-0.62 2.81,-1.85 3.7,-3.76 0.96,-1.91 1.41,-5.85 1.41,-11.74l0 -146.71 -24.26 0 0 -32.35c11.79,-1.4 21.84,-3.21 30.15,-5.34 8.26,-2.08 16.69,-5.05 25.22,-8.82l15.39 0zm6.07 51.56l0 53.13c0,8.37 0.79,14.33 2.36,17.86 1.62,3.48 4.38,6.35 8.26,8.6 3.87,2.19 8.36,3.31 13.42,3.31 8.87,0 16.24,-4.04 22.08,-12.2 5.9,-8.14 8.82,-20.5 8.82,-37.12 0,-15.39 -2.53,-26.79 -7.64,-34.26 -5.11,-7.42 -11.4,-11.12 -18.82,-11.12 -8.59,0 -18.09,3.93 -28.47,11.79z"/>
  <path id="_17" class="fil3" d="M5155.39 1535.82l0 -12.08c0,-7.19 -0.63,-12.13 -1.8,-14.83 -1.23,-2.75 -3.43,-5 -6.62,-6.79 -3.21,-1.8 -7.2,-2.7 -11.91,-2.7 -3.65,0 -6.96,0.62 -9.95,1.79 -2.97,1.18 -5.33,2.7 -7.07,4.55 -1.8,1.85 -3.82,5.45 -6.12,10.78 -2.98,6.74 -6.52,11.57 -10.61,14.54 -4.11,2.92 -8.99,4.38 -14.55,4.38 -7.02,0 -12.8,-2.19 -17.3,-6.57 -4.49,-4.38 -6.74,-9.78 -6.74,-16.23 0,-7.3 2.3,-13.82 6.91,-19.5 6.18,-7.58 15.34,-13.76 27.52,-18.59 12.19,-4.78 25.9,-7.2 41.12,-7.2 15.27,0 28.24,2.47 38.98,7.37 10.67,4.94 18.14,10.84 22.35,17.63 4.21,6.86 6.35,17.3 6.35,31.29l0 58.7c0,7.24 0.39,11.85 1.18,13.87 0.73,2.02 2.42,3.81 4.95,5.33 2.53,1.52 5.34,2.3 8.43,2.3 3.09,0 7.24,-0.89 12.41,-2.63l0 32.24c-9.32,2.97 -18.31,4.44 -26.91,4.44 -10.1,0 -18.7,-1.62 -25.89,-4.95 -7.13,-3.31 -13.14,-8.26 -17.97,-14.88 -11.02,7.13 -20.95,12.25 -29.94,15.27 -8.93,3.04 -17.58,4.55 -25.95,4.55 -15.72,0 -28.41,-4.44 -38.14,-13.26 -9.66,-8.82 -14.49,-19.71 -14.49,-32.63 0,-7.37 1.69,-14.11 5.05,-20.22 3.38,-6.12 8.37,-11.52 15,-16.12 6.69,-4.61 16.96,-8.65 30.95,-12.25 13.93,-3.53 30.83,-6.11 50.78,-7.63zm0 27.29c-14.44,2.08 -24.67,4.21 -30.61,6.35 -5.95,2.14 -10.23,4.78 -12.76,8.03 -2.53,3.26 -3.81,6.57 -3.81,9.95 0,4.38 1.62,8.02 4.94,11.01 3.31,2.97 7.81,4.44 13.43,4.44 3.65,0 7.87,-0.96 12.69,-2.81 4.78,-1.85 10.17,-4.61 16.12,-8.19l0 -28.76z"/>
  <path id="_18" class="fil3" d="M5323.55 1467.4l0 23.93c8.82,-9.27 16.45,-15.56 22.92,-18.87 6.4,-3.38 12.63,-5.06 18.59,-5.06 5.39,0 10.22,1.24 14.44,3.71 4.27,2.47 7.64,6.01 10.12,10.61 2.47,4.61 3.7,9.54 3.7,14.83 0,6.91 -2.3,13.14 -6.86,18.76 -4.54,5.56 -10.94,8.37 -19.2,8.37 -2.2,0 -4.16,-0.17 -5.9,-0.51 -1.69,-0.34 -5.28,-1.4 -10.78,-3.26 -2.87,-0.84 -5.22,-1.29 -7.08,-1.29 -2.87,0 -7.58,1.8 -14.2,5.39l0 64.15c0,5.45 0.39,8.98 1.23,10.61 0.79,1.68 2.13,2.87 3.93,3.65 1.86,0.72 5.85,1.11 11.96,1.11l7.14 0 0 31.68 -101.1 0 0 -31.68 8.42 0c6.07,0 9.83,-0.33 11.29,-1.01 1.52,-0.62 2.64,-1.79 3.36,-3.43 0.79,-1.62 1.19,-5.28 1.19,-10.94l0 -75.26 -24.26 0 0 -31.62c17.85,-1.13 36.4,-5.73 55.66,-13.88l15.44 0z"/>
  <path id="_19" class="fil3" d="M5505.87 1535.82l0 -12.08c0,-7.19 -0.63,-12.13 -1.8,-14.83 -1.23,-2.75 -3.43,-5 -6.62,-6.79 -3.21,-1.8 -7.2,-2.7 -11.91,-2.7 -3.65,0 -6.96,0.62 -9.95,1.79 -2.97,1.18 -5.33,2.7 -7.07,4.55 -1.8,1.85 -3.82,5.45 -6.12,10.78 -2.98,6.74 -6.52,11.57 -10.61,14.54 -4.11,2.92 -8.99,4.38 -14.55,4.38 -7.02,0 -12.8,-2.19 -17.3,-6.57 -4.49,-4.38 -6.74,-9.78 -6.74,-16.23 0,-7.3 2.3,-13.82 6.91,-19.5 6.18,-7.58 15.34,-13.76 27.52,-18.59 12.19,-4.78 25.9,-7.2 41.12,-7.2 15.27,0 28.24,2.47 38.98,7.37 10.67,4.94 18.14,10.84 22.35,17.63 4.21,6.86 6.35,17.3 6.35,31.29l0 58.7c0,7.24 0.39,11.85 1.18,13.87 0.73,2.02 2.42,3.81 4.95,5.33 2.53,1.52 5.34,2.3 8.43,2.3 3.09,0 7.24,-0.89 12.41,-2.63l0 32.24c-9.32,2.97 -18.31,4.44 -26.91,4.44 -10.1,0 -18.7,-1.62 -25.89,-4.95 -7.13,-3.31 -13.14,-8.26 -17.97,-14.88 -11.02,7.13 -20.95,12.25 -29.94,15.27 -8.93,3.04 -17.58,4.55 -25.95,4.55 -15.72,0 -28.41,-4.44 -38.14,-13.26 -9.66,-8.82 -14.49,-19.71 -14.49,-32.63 0,-7.37 1.69,-14.11 5.05,-20.22 3.38,-6.12 8.37,-11.52 15,-16.12 6.69,-4.61 16.96,-8.65 30.95,-12.25 13.93,-3.53 30.83,-6.11 50.78,-7.63zm0 27.29c-14.44,2.08 -24.67,4.21 -30.61,6.35 -5.95,2.14 -10.23,4.78 -12.76,8.03 -2.53,3.26 -3.81,6.57 -3.81,9.95 0,4.38 1.62,8.02 4.94,11.01 3.31,2.97 7.81,4.44 13.43,4.44 3.65,0 7.87,-0.96 12.69,-2.81 4.78,-1.85 10.17,-4.61 16.12,-8.19l0 -28.76z"/>
  <path id="_20" class="fil3" d="M5886.28 1393.6l0 190.92c0,7.53 0.34,12.07 0.96,13.7 0.68,1.57 1.8,2.75 3.31,3.53 1.58,0.73 5.73,1.13 12.42,1.13l7.58 0 0 32.35 -71.1 2.36 0 -17.13c-10.27,6.96 -19.32,11.74 -27.13,14.44 -7.75,2.7 -15.56,4.04 -23.31,4.04 -12.64,0 -24.21,-3.43 -34.82,-10.22 -10.56,-6.85 -19.2,-17.01 -25.94,-30.44 -6.74,-13.43 -10.12,-28.36 -10.12,-44.76 0,-16.63 3.43,-31.68 10.27,-45.22 6.86,-13.48 15.85,-23.65 26.85,-30.56 11.01,-6.91 23.36,-10.34 36.96,-10.34 7.02,0 13.76,0.85 20.16,2.54 6.46,1.68 13.54,4.66 21.35,8.93l0 -39.43 -24.26 0 0 -31.67c13.65,-1.35 24.72,-3.04 33.25,-5.06 8.48,-2.07 17.69,-5.11 27.58,-9.1l16.01 0zm-52.57 194.01l0 -54.55c0,-6.79 -0.5,-11.62 -1.45,-14.44 -1.35,-4.04 -4.33,-7.58 -8.99,-10.61 -4.66,-3.03 -9.88,-4.54 -15.56,-4.54 -5.95,0 -11.45,1.74 -16.52,5.28 -5.05,3.55 -9.03,8.94 -12.02,16.18 -2.97,7.3 -4.44,16.35 -4.44,27.25 0,15.05 3.38,27.12 10.05,36.28 5.17,7.13 12.03,10.73 20.61,10.73 3.71,0 7.3,-0.62 10.68,-1.86 3.42,-1.29 9.32,-4.49 17.63,-9.71z"/>
  <path id="_21" class="fil3" d="M6080.51 1574.35l22.52 22.63c-12.93,14.72 -26.12,25.44 -39.55,32.02 -13.43,6.62 -27.97,9.93 -43.53,9.93 -25,0 -46.05,-8.43 -63.13,-25.33 -17.13,-16.91 -25.66,-37.3 -25.66,-61.29 0,-15.72 3.82,-30.1 11.52,-43.19 7.7,-13.09 18.36,-23.31 31.96,-30.66 13.65,-7.36 29.04,-11.07 46.28,-11.07 11.01,0 21.01,1.58 30,4.78 8.99,3.15 16.91,7.7 23.65,13.6 6.74,5.84 12.19,12.97 16.28,21.35 4.16,8.36 6.96,17.01 8.48,25.94 0.68,4.5 1.02,11.58 1.02,21.29l-110.88 0c0.22,13.87 4.32,25.1 12.24,33.65 7.92,8.59 17.69,12.85 29.16,12.85 7.36,0 15.39,-2.19 24.04,-6.57 8.64,-4.44 17.18,-11.06 25.61,-19.93zm-32.74 -47.64c-0.8,-6.51 -2.37,-11.62 -4.72,-15.33 -2.36,-3.77 -5.56,-6.74 -9.55,-8.99 -4.04,-2.19 -8.19,-3.31 -12.63,-3.31 -4.61,0 -9.04,1.13 -13.37,3.43 -4.27,2.24 -7.7,5.33 -10.27,9.27 -2.58,3.87 -4.27,8.87 -5.05,14.93l55.61 0z"/>
  <path id="_22" class="fil3" d="M6277.03 1573.11l24.16 21.12c-12.93,15.61 -26.34,26.96 -40.28,34.04 -13.93,7.13 -28.81,10.67 -44.71,10.67 -25.44,0 -46.67,-8.26 -63.7,-24.76 -17.01,-16.52 -25.55,-36.63 -25.55,-60.33 0,-16.06 3.98,-30.77 11.91,-44.14 7.97,-13.31 18.87,-23.7 32.74,-31.11 13.87,-7.47 30.22,-11.19 49.09,-11.19 22.58,0 40.99,5.23 55.32,15.73 14.32,10.44 21.45,21.51 21.45,33.14 0,4.89 -1.13,9.33 -3.36,13.2 -2.25,3.93 -5.68,7.08 -10.29,9.49 -4.61,2.42 -9.49,3.6 -14.66,3.6 -4.15,0 -7.92,-0.85 -11.18,-2.47 -3.31,-1.63 -6.06,-3.7 -8.26,-6.23 -0.96,-1.07 -2.87,-4.45 -5.72,-10.12 -3.65,-7.08 -6.41,-11.79 -8.43,-14.1 -1.96,-2.3 -4.33,-4.04 -7.08,-5.29 -2.7,-1.28 -5.84,-1.91 -9.38,-1.91 -5.67,0 -11.11,1.8 -16.34,5.46 -5.23,3.65 -9.5,9.21 -12.86,16.62 -3.31,7.42 -5,15.67 -5,24.83 0,10.05 1.96,19.04 5.89,27.08 3.99,8.02 9.28,14.1 15.9,18.19 6.62,4.16 13.93,6.23 21.96,6.23 7.64,0 15.39,-2.07 23.19,-6.18 7.76,-4.15 16.18,-11.35 25.17,-21.57z"/>
  <path id="_23" class="fil3" d="M6373.13 1393.94c8.37,0 15.44,2.92 21.35,8.82 5.9,5.84 8.82,12.92 8.82,21.23 0,8.48 -2.92,15.61 -8.82,21.45 -5.9,5.9 -12.97,8.82 -21.35,8.82 -8.36,0 -15.44,-2.92 -21.35,-8.82 -5.89,-5.84 -8.81,-12.92 -8.81,-21.28 0,-8.2 3.03,-15.27 9.03,-21.29 6.07,-5.95 13.09,-8.93 21.12,-8.93zm26.79 73.46l0 121.38c0,5.78 0.34,9.37 1.02,10.67 0.62,1.29 1.79,2.3 3.53,3.04 1.69,0.73 5.5,1.06 11.45,1.06l8.94 0 0 31.68 -101.78 0 0 -31.68 8.7 0c5.68,0 9.33,-0.28 10.9,-0.89 1.57,-0.62 2.75,-1.63 3.53,-3.04 0.73,-1.4 1.13,-4.27 1.13,-8.53l0 -78.18 -24.26 0 0 -31c8.65,-0.46 16.96,-1.35 24.94,-2.81 7.92,-1.4 15.05,-3.14 21.28,-5.11 4.04,-1.29 9.04,-3.48 15,-6.58l15.61 0z"/>
  <path id="_24" class="fil3" d="M6555.11 1471.12l21.51 0 13.31 45.77 -31 12.52c-5.89,-9.44 -13.31,-16.84 -22.24,-22.24 -8.94,-5.39 -17.81,-8.09 -26.57,-8.09 -5.78,0 -10.12,0.96 -12.98,2.92 -2.86,1.91 -4.27,4.27 -4.27,6.96 0,2.25 1.02,4.38 3.04,6.29 2.03,1.96 6.23,4.04 12.58,6.18l45.16 16.12c8.03,2.8 15.67,6.4 23.02,10.67 7.37,4.27 12.86,9.49 16.52,15.68 3.65,6.18 5.51,13.42 5.51,21.73 0,14.83 -5.68,27.08 -17.08,36.57 -13.36,11.18 -30.05,16.74 -49.98,16.74 -17.08,0 -31.96,-4.27 -44.65,-12.75l-4.61 9.04 -21.85 0 -20.22 -53.64 31 -13.09c7.76,12.08 17.35,21.51 28.7,28.42 11.35,6.91 21.79,10.34 31.34,10.34 5.9,0 10.84,-1.35 14.88,-4.11 3.09,-2.19 4.61,-4.77 4.61,-7.75 0,-2.53 -1.18,-4.88 -3.59,-7.19 -2.37,-2.3 -7.64,-4.89 -15.78,-7.75l-35.5 -12.37c-19.59,-6.85 -32.91,-14.2 -39.98,-22.01 -7.08,-7.87 -10.61,-17.13 -10.61,-27.86 0,-13.76 5.5,-25.33 16.57,-34.76 12.63,-10.73 28.19,-16.07 46.67,-16.07 16.45,0 30.49,3.65 42.23,11.02l4.27 -7.3z"/>
  <path id="_25" class="fil3" d="M6710.42 1467.4c18.76,0 35.1,3.65 49.04,11.02 13.98,7.3 24.66,17.29 32.18,29.88 7.53,12.63 11.28,27.46 11.28,44.37 0,25.61 -8.31,46.39 -25,62.35 -16.67,15.95 -38.98,23.92 -66.84,23.92 -28.41,0 -50.99,-8.02 -67.79,-24.09 -16.23,-15.34 -24.37,-36.06 -24.37,-62.18 0,-17.13 3.7,-31.9 11.12,-44.26 7.41,-12.35 18.14,-22.29 32.18,-29.76 14.04,-7.47 30.1,-11.24 48.19,-11.24zm0.84 36.07c-6.28,0 -12.19,1.85 -17.69,5.56 -5.5,3.7 -9.77,9.15 -12.8,16.4 -3.04,7.19 -4.55,16.35 -4.55,27.52 0,11.45 1.46,20.94 4.44,28.48 2.98,7.53 7.13,13.14 12.35,16.73 5.23,3.6 10.95,5.39 17.25,5.39 9.71,0 18.03,-4.04 25,-12.19 6.91,-8.14 10.39,-20.78 10.39,-37.97 0,-16.57 -3.21,-29.04 -9.66,-37.4 -6.46,-8.37 -14.72,-12.52 -24.72,-12.52zm42.35 -103.47l16.96 8.43c-1.96,9.72 -7.53,18.37 -16.62,25.95 -7.7,6.29 -17.13,9.44 -28.48,9.44 -7.97,0 -19.09,-2.13 -33.36,-6.46 -5.95,-1.74 -9.83,-2.63 -11.69,-2.63 -1.45,0 -2.75,0.28 -3.99,0.89 -1.18,0.63 -3.25,2.37 -6.23,5.17l-18.59 -10.39c3.09,-8.93 8.7,-16.5 16.96,-22.75 8.19,-6.23 16.67,-9.32 25.33,-9.32 3.21,0 6.18,0.22 9.04,0.73 2.87,0.5 7.75,1.74 14.66,3.7 10.51,3.09 17.92,4.66 22.18,4.66 1.97,0 3.71,-0.34 5.17,-0.96 1.52,-0.62 3.55,-2.08 6.18,-4.44l2.47 -2.03z"/>
  <path id="_26" class="fil3" d="M6976.93 1574.35l22.52 22.63c-12.93,14.72 -26.12,25.44 -39.55,32.02 -13.43,6.62 -27.97,9.93 -43.53,9.93 -25,0 -46.05,-8.43 -63.13,-25.33 -17.13,-16.91 -25.66,-37.3 -25.66,-61.29 0,-15.72 3.82,-30.1 11.52,-43.19 7.7,-13.09 18.36,-23.31 31.96,-30.66 13.65,-7.36 29.04,-11.07 46.28,-11.07 11.01,0 21.01,1.58 30,4.78 8.99,3.15 16.91,7.7 23.65,13.6 6.74,5.84 12.19,12.97 16.28,21.35 4.16,8.36 6.96,17.01 8.48,25.94 0.68,4.5 1.02,11.58 1.02,21.29l-110.88 0c0.22,13.87 4.32,25.1 12.24,33.65 7.92,8.59 17.69,12.85 29.16,12.85 7.36,0 15.39,-2.19 24.04,-6.57 8.64,-4.44 17.18,-11.06 25.61,-19.93zm-32.74 -47.64c-0.8,-6.51 -2.37,-11.62 -4.72,-15.33 -2.36,-3.77 -5.56,-6.74 -9.55,-8.99 -4.04,-2.19 -8.19,-3.31 -12.63,-3.31 -4.61,0 -9.04,1.13 -13.37,3.43 -4.27,2.24 -7.7,5.33 -10.27,9.27 -2.58,3.87 -4.27,8.87 -5.05,14.93l55.61 0z"/>
  <path id="_27" class="fil3" d="M7134.8 1471.12l21.51 0 13.31 45.77 -31 12.52c-5.89,-9.44 -13.31,-16.84 -22.24,-22.24 -8.94,-5.39 -17.81,-8.09 -26.57,-8.09 -5.78,0 -10.12,0.96 -12.98,2.92 -2.86,1.91 -4.27,4.27 -4.27,6.96 0,2.25 1.02,4.38 3.04,6.29 2.03,1.96 6.23,4.04 12.58,6.18l45.16 16.12c8.03,2.8 15.67,6.4 23.02,10.67 7.37,4.27 12.86,9.49 16.52,15.68 3.65,6.18 5.51,13.42 5.51,21.73 0,14.83 -5.68,27.08 -17.08,36.57 -13.36,11.18 -30.05,16.74 -49.98,16.74 -17.08,0 -31.96,-4.27 -44.65,-12.75l-4.61 9.04 -21.85 0 -20.22 -53.64 31 -13.09c7.76,12.08 17.35,21.51 28.7,28.42 11.35,6.91 21.79,10.34 31.34,10.34 5.9,0 10.84,-1.35 14.88,-4.11 3.09,-2.19 4.61,-4.77 4.61,-7.75 0,-2.53 -1.18,-4.88 -3.59,-7.19 -2.37,-2.3 -7.64,-4.89 -15.78,-7.75l-35.5 -12.37c-19.59,-6.85 -32.91,-14.2 -39.98,-22.01 -7.08,-7.87 -10.61,-17.13 -10.61,-27.86 0,-13.76 5.5,-25.33 16.57,-34.76 12.63,-10.73 28.19,-16.07 46.67,-16.07 16.45,0 30.49,3.65 42.23,11.02l4.27 -7.3z"/>
  <path id="_28" class="fil3" d="M7385.93 1467.4l0 23.93c8.82,-9.27 16.45,-15.56 22.92,-18.87 6.4,-3.38 12.63,-5.06 18.59,-5.06 5.39,0 10.22,1.24 14.44,3.71 4.27,2.47 7.64,6.01 10.12,10.61 2.47,4.61 3.7,9.54 3.7,14.83 0,6.91 -2.3,13.14 -6.86,18.76 -4.54,5.56 -10.94,8.37 -19.2,8.37 -2.2,0 -4.16,-0.17 -5.9,-0.51 -1.69,-0.34 -5.28,-1.4 -10.78,-3.26 -2.87,-0.84 -5.22,-1.29 -7.08,-1.29 -2.87,0 -7.58,1.8 -14.2,5.39l0 64.15c0,5.45 0.39,8.98 1.23,10.61 0.79,1.68 2.13,2.87 3.93,3.65 1.86,0.72 5.85,1.11 11.96,1.11l7.14 0 0 31.68 -101.1 0 0 -31.68 8.42 0c6.07,0 9.83,-0.33 11.29,-1.01 1.52,-0.62 2.64,-1.79 3.36,-3.43 0.79,-1.62 1.19,-5.28 1.19,-10.94l0 -75.26 -24.26 0 0 -31.62c17.85,-1.13 36.4,-5.73 55.66,-13.88l15.44 0z"/>
  <path id="_29" class="fil3" d="M7617.17 1574.35l22.52 22.63c-12.93,14.72 -26.12,25.44 -39.55,32.02 -13.43,6.62 -27.97,9.93 -43.53,9.93 -25,0 -46.05,-8.43 -63.13,-25.33 -17.13,-16.91 -25.66,-37.3 -25.66,-61.29 0,-15.72 3.82,-30.1 11.52,-43.19 7.7,-13.09 18.36,-23.31 31.96,-30.66 13.65,-7.36 29.04,-11.07 46.28,-11.07 11.01,0 21.01,1.58 30,4.78 8.99,3.15 16.91,7.7 23.65,13.6 6.74,5.84 12.19,12.97 16.28,21.35 4.16,8.36 6.96,17.01 8.48,25.94 0.68,4.5 1.02,11.58 1.02,21.29l-110.88 0c0.22,13.87 4.32,25.1 12.24,33.65 7.92,8.59 17.69,12.85 29.16,12.85 7.36,0 15.39,-2.19 24.04,-6.57 8.64,-4.44 17.18,-11.06 25.61,-19.93zm-32.74 -47.64c-0.8,-6.51 -2.37,-11.62 -4.72,-15.33 -2.36,-3.77 -5.56,-6.74 -9.55,-8.99 -4.04,-2.19 -8.19,-3.31 -12.63,-3.31 -4.61,0 -9.04,1.13 -13.37,3.43 -4.27,2.24 -7.7,5.33 -10.27,9.27 -2.58,3.87 -4.27,8.87 -5.05,14.93l55.61 0z"/>
  <path id="_30" class="fil3" d="M7737.42 1393.6l0 192.66c0,6.45 0.28,10.33 0.84,11.51 0.73,2.2 2.42,3.82 5.06,4.78 1.62,0.68 6.06,1.01 13.31,1.01l5.73 0 0 31.68 -101.78 0 0 -31.68 6.23 0c6.58,0 10.78,-0.39 12.64,-1.23 1.86,-0.84 3.21,-2.13 4.1,-3.93 0.85,-1.86 1.29,-5.85 1.29,-12.13l0 -146.83 -24.26 0 0 -31.67c19.66,-1.35 39.93,-6.07 60.88,-14.16l15.95 0z"/>
  <path id="_31" class="fil3" d="M7927.16 1574.35l22.52 22.63c-12.93,14.72 -26.12,25.44 -39.55,32.02 -13.43,6.62 -27.97,9.93 -43.53,9.93 -25,0 -46.05,-8.43 -63.13,-25.33 -17.13,-16.91 -25.66,-37.3 -25.66,-61.29 0,-15.72 3.82,-30.1 11.52,-43.19 7.7,-13.09 18.36,-23.31 31.96,-30.66 13.65,-7.36 29.04,-11.07 46.28,-11.07 11.01,0 21.01,1.58 30,4.78 8.99,3.15 16.91,7.7 23.65,13.6 6.74,5.84 12.19,12.97 16.28,21.35 4.16,8.36 6.96,17.01 8.48,25.94 0.68,4.5 1.02,11.58 1.02,21.29l-110.88 0c0.22,13.87 4.32,25.1 12.24,33.65 7.92,8.59 17.69,12.85 29.16,12.85 7.36,0 15.39,-2.19 24.04,-6.57 8.64,-4.44 17.18,-11.06 25.61,-19.93zm-32.74 -47.64c-0.8,-6.51 -2.37,-11.62 -4.72,-15.33 -2.36,-3.77 -5.56,-6.74 -9.55,-8.99 -4.04,-2.19 -8.19,-3.31 -12.63,-3.31 -4.61,0 -9.04,1.13 -13.37,3.43 -4.27,2.24 -7.7,5.33 -10.27,9.27 -2.58,3.87 -4.27,8.87 -5.05,14.93l55.61 0z"/>
  <path id="_32" class="fil3" d="M8075.38 1471.12l87.62 0 0 31.67c-7.36,0.12 -11.68,0.34 -12.86,0.68 -1.9,0.5 -3.81,1.85 -5.89,3.93 -2.03,2.08 -4.1,5.34 -6.18,9.72l-53.92 118.11 -43.82 0 -56.11 -121.83c-1.35,-2.7 -3.04,-5.05 -5.17,-7.02 -1.62,-1.52 -3.48,-2.53 -5.45,-2.92 -1.35,-0.46 -5.39,-0.68 -12.13,-0.68l0 -31.67 100.76 0 0 31.67 -5.22 0c-6.46,0 -10.44,0.51 -11.96,1.46 -2.13,1.35 -3.15,3.04 -3.15,5.11 0,1.63 0.73,4.21 2.14,7.76l25.44 63.19 26.57 -63.13c1.57,-3.65 2.3,-6.35 2.3,-8.09 0,-2.19 -1.13,-3.87 -3.43,-4.95 -1.8,-0.89 -5.73,-1.35 -11.79,-1.35l-7.76 0 0 -31.67z"/>
  <path id="_33" class="fil3" d="M8275.95 1535.82l0 -12.08c0,-7.19 -0.63,-12.13 -1.8,-14.83 -1.23,-2.75 -3.43,-5 -6.62,-6.79 -3.21,-1.8 -7.2,-2.7 -11.91,-2.7 -3.65,0 -6.96,0.62 -9.95,1.79 -2.97,1.18 -5.33,2.7 -7.07,4.55 -1.8,1.85 -3.82,5.45 -6.12,10.78 -2.98,6.74 -6.52,11.57 -10.61,14.54 -4.11,2.92 -8.99,4.38 -14.55,4.38 -7.02,0 -12.8,-2.19 -17.3,-6.57 -4.49,-4.38 -6.74,-9.78 -6.74,-16.23 0,-7.3 2.3,-13.82 6.91,-19.5 6.18,-7.58 15.34,-13.76 27.52,-18.59 12.19,-4.78 25.9,-7.2 41.12,-7.2 15.27,0 28.24,2.47 38.98,7.37 10.67,4.94 18.14,10.84 22.35,17.63 4.21,6.86 6.35,17.3 6.35,31.29l0 58.7c0,7.24 0.39,11.85 1.18,13.87 0.73,2.02 2.42,3.81 4.95,5.33 2.53,1.52 5.34,2.3 8.43,2.3 3.09,0 7.24,-0.89 12.41,-2.63l0 32.24c-9.32,2.97 -18.31,4.44 -26.91,4.44 -10.1,0 -18.7,-1.62 -25.89,-4.95 -7.13,-3.31 -13.14,-8.26 -17.97,-14.88 -11.02,7.13 -20.95,12.25 -29.94,15.27 -8.93,3.04 -17.58,4.55 -25.95,4.55 -15.72,0 -28.41,-4.44 -38.14,-13.26 -9.66,-8.82 -14.49,-19.71 -14.49,-32.63 0,-7.37 1.69,-14.11 5.05,-20.22 3.38,-6.12 8.37,-11.52 15,-16.12 6.69,-4.61 16.96,-8.65 30.95,-12.25 13.93,-3.53 30.83,-6.11 50.78,-7.63zm0 27.29c-14.44,2.08 -24.67,4.21 -30.61,6.35 -5.95,2.14 -10.23,4.78 -12.76,8.03 -2.53,3.26 -3.81,6.57 -3.81,9.95 0,4.38 1.62,8.02 4.94,11.01 3.31,2.97 7.81,4.44 13.43,4.44 3.65,0 7.87,-0.96 12.69,-2.81 4.78,-1.85 10.17,-4.61 16.12,-8.19l0 -28.76z"/>
  <path id="_34" class="fil3" d="M8444.11 1467.4l0 21.85c12.41,-8.43 23.09,-14.21 31.9,-17.25 8.88,-3.09 17.92,-4.61 27.19,-4.61 10.67,0 20.1,2.25 28.24,6.74 8.2,4.5 14.21,10.12 17.92,16.86 3.77,6.69 5.63,16.29 5.63,28.65l0 68.29c0,5.85 0.39,9.55 1.23,11.18 0.79,1.63 2.08,2.87 3.87,3.6 1.29,0.56 5.22,0.84 11.79,0.84l8.03 0 0 31.68 -96.38 0 0 -31.68c7.24,-0.11 11.34,-0.28 12.19,-0.5 2.75,-0.73 4.49,-2.03 5.39,-3.77 0.84,-1.74 1.29,-5.5 1.29,-11.28l0 -60.04c0,-7.75 -0.85,-12.75 -2.47,-15.05 -2.64,-3.82 -6.8,-5.73 -12.52,-5.73 -4.72,0 -9.78,1.01 -15.17,3.09 -5.39,2.08 -12.64,6.35 -21.74,12.81l0 64.93c0,7.07 0.79,11.45 2.36,13.09 1.52,1.62 5.29,2.46 11.18,2.46l5.34 0 0 31.68 -95.71 0 0 -31.68 4.78 0c7.53,0 12.19,-0.33 13.98,-0.94 1.8,-0.68 3.21,-1.86 4.11,-3.49 0.96,-1.62 1.4,-4.83 1.4,-9.66l0 -76.22 -24.26 0 0 -31.67c19.66,-2.47 38.08,-7.19 55.21,-14.16l15.22 0z"/>
  <path id="_35" class="fil3" d="M8674.67 1414.83l0 56.29 52.91 0 0 35.05 -52.91 0 0 57.23c0,12.92 0.67,21.23 2.08,24.88 1.35,3.7 3.87,6.63 7.63,8.82 4.89,2.97 10.56,4.44 16.91,4.44 11.29,0 22.52,-3.65 33.7,-11.01l0 35.22c-9.55,4.49 -18.19,7.63 -25.89,9.49 -7.76,1.79 -16.12,2.7 -25.11,2.7 -10.22,0 -19.26,-1.29 -27.07,-3.87 -7.87,-2.59 -14.55,-6.24 -20.11,-11.01 -5.5,-4.78 -9.38,-9.83 -11.52,-15.22 -2.13,-5.39 -3.19,-13.15 -3.19,-23.37l0 -78.29 -24.26 0 0 -31.68c8.76,-2.87 16.23,-6.91 22.46,-12.19 6.19,-5.34 11.18,-11.69 15,-19.09 3.77,-7.47 6.35,-16.91 7.76,-28.37l31.62 0z"/>
  <path id="_36" class="fil3" d="M8904.56 1574.35l22.52 22.63c-12.93,14.72 -26.12,25.44 -39.55,32.02 -13.43,6.62 -27.97,9.93 -43.53,9.93 -25,0 -46.05,-8.43 -63.13,-25.33 -17.13,-16.91 -25.66,-37.3 -25.66,-61.29 0,-15.72 3.82,-30.1 11.52,-43.19 7.7,-13.09 18.36,-23.31 31.96,-30.66 13.65,-7.36 29.04,-11.07 46.28,-11.07 11.01,0 21.01,1.58 30,4.78 8.99,3.15 16.91,7.7 23.65,13.6 6.74,5.84 12.19,12.97 16.28,21.35 4.16,8.36 6.96,17.01 8.48,25.94 0.68,4.5 1.02,11.58 1.02,21.29l-110.88 0c0.22,13.87 4.32,25.1 12.24,33.65 7.92,8.59 17.69,12.85 29.16,12.85 7.36,0 15.39,-2.19 24.04,-6.57 8.64,-4.44 17.18,-11.06 25.61,-19.93zm-32.74 -47.64c-0.8,-6.51 -2.37,-11.62 -4.72,-15.33 -2.36,-3.77 -5.56,-6.74 -9.55,-8.99 -4.04,-2.19 -8.19,-3.31 -12.63,-3.31 -4.61,0 -9.04,1.13 -13.37,3.43 -4.27,2.24 -7.7,5.33 -10.27,9.27 -2.58,3.87 -4.27,8.87 -5.05,14.93l55.61 0z"/>
  <path id="_37" class="fil3" d="M9062.44 1471.12l21.51 0 13.31 45.77 -31 12.52c-5.89,-9.44 -13.31,-16.84 -22.24,-22.24 -8.94,-5.39 -17.81,-8.09 -26.57,-8.09 -5.78,0 -10.12,0.96 -12.98,2.92 -2.86,1.91 -4.27,4.27 -4.27,6.96 0,2.25 1.02,4.38 3.04,6.29 2.03,1.96 6.23,4.04 12.58,6.18l45.16 16.12c8.03,2.8 15.67,6.4 23.02,10.67 7.37,4.27 12.86,9.49 16.52,15.68 3.65,6.18 5.51,13.42 5.51,21.73 0,14.83 -5.68,27.08 -17.08,36.57 -13.36,11.18 -30.05,16.74 -49.98,16.74 -17.08,0 -31.96,-4.27 -44.65,-12.75l-4.61 9.04 -21.85 0 -20.22 -53.64 31 -13.09c7.76,12.08 17.35,21.51 28.7,28.42 11.35,6.91 21.79,10.34 31.34,10.34 5.9,0 10.84,-1.35 14.88,-4.11 3.09,-2.19 4.61,-4.77 4.61,-7.75 0,-2.53 -1.18,-4.88 -3.59,-7.19 -2.37,-2.3 -7.64,-4.89 -15.78,-7.75l-35.5 -12.37c-19.59,-6.85 -32.91,-14.2 -39.98,-22.01 -7.08,-7.87 -10.61,-17.13 -10.61,-27.86 0,-13.76 5.5,-25.33 16.57,-34.76 12.63,-10.73 28.19,-16.07 46.67,-16.07 16.45,0 30.49,3.65 42.23,11.02l4.27 -7.3z"/>
 </g>
</svg>
